<?xml version="1.0" standalone="no"?><!DOCTYPE svg PUBLIC "-//W3C//DTD SVG 1.1//EN" "http://www.w3.org/Graphics/SVG/1.1/DTD/svg11.dtd"><svg t="1781782265872" class="icon" viewBox="0 0 1024 1024" version="1.1" xmlns="http://www.w3.org/2000/svg" p-id="11287" xmlns:xlink="http://www.w3.org/1999/xlink" width="32" height="32"><path d="M296.256 562.304l154.048 154.048-61.568 61.632 61.632 61.696-61.632 61.632-107.84-107.904-123.264 123.264-61.632-61.632 123.264-123.264L111.424 624l61.632-61.632 61.568 61.632 61.632-61.632zM119.808 108.8l154.496 0.128 515.008 515.008 61.632-61.632 61.632 61.632-107.84 107.904L928 855.04l-61.632 61.632-123.264-123.264-107.84 107.904-61.632-61.632 61.632-61.696-515.328-515.328L119.808 108.8z m630.016 0l154.368 0.128 0.128 153.6-176.64 176.512-154.112-154.048L749.824 108.8z" p-id="11288"></path></svg>