<?xml version="1.0" standalone="no"?><!DOCTYPE svg PUBLIC "-//W3C//DTD SVG 1.1//EN" "http://www.w3.org/Graphics/SVG/1.1/DTD/svg11.dtd"><svg t="1781786717788" class="icon" viewBox="0 0 1207 1024" version="1.1" xmlns="http://www.w3.org/2000/svg" p-id="25944" xmlns:xlink="http://www.w3.org/1999/xlink" width="37.71875" height="32"><path d="M431.225355 1009.054498a124.200851 124.200851 0 0 1-64.998445-109.33815v-91.701628l-174.253794 113.89218a124.200851 124.200851 0 0 1-67.689464 20.120538 124.200851 124.200851 0 0 1-59.202406-14.986903A124.200851 124.200851 0 0 1 0 817.702386V206.013194a124.200851 124.200851 0 0 1 65.081246-109.131148 124.200851 124.200851 0 0 1 59.036805-14.986903 122.876042 122.876042 0 0 1 67.855065 20.161938l174.253794 113.892181V124.247634a124.200851 124.200851 0 0 1 64.998445-109.33815 124.614854 124.614854 0 0 1 127.264473 5.340637l592.852063 387.713657a123.745448 123.745448 0 0 1 56.262985 103.997513 123.745448 123.745448 0 0 1-56.262985 103.997512l-592.852063 387.713658a124.863256 124.863256 0 0 1-68.144867 20.286139 124.821855 124.821855 0 0 1-59.119606-14.904102z" p-id="25945"></path></svg>