<?xml version="1.0" standalone="no"?><!DOCTYPE svg PUBLIC "-//W3C//DTD SVG 1.1//EN" "http://www.w3.org/Graphics/SVG/1.1/DTD/svg11.dtd"><svg t="1781782287928" class="icon" viewBox="0 0 1024 1024" version="1.1" xmlns="http://www.w3.org/2000/svg" p-id="12865" xmlns:xlink="http://www.w3.org/1999/xlink" width="32" height="32"><path d="M395.264 296.96s51.2 217.088 97.28 264.192 263.168 97.28 263.168 97.28-216.064 70.656-263.168 116.736c-47.104 46.08-97.28 243.712-97.28 243.712s-49.152-195.584-97.28-243.712C250.88 728.064 34.816 658.432 34.816 658.432s217.088-50.176 264.192-97.28 96.256-264.192 96.256-264.192zM754.688 5.12s32.768 140.288 63.488 171.008 171.008 62.464 171.008 62.464-139.264 46.08-169.984 76.8-64.512 158.72-64.512 158.72-32.768-128-62.464-157.696c-30.72-30.72-171.008-76.8-171.008-76.8s140.288-32.768 171.008-62.464S754.688 5.12 754.688 5.12z" p-id="12866"></path></svg>