<?xml version="1.0" standalone="no"?><!DOCTYPE svg PUBLIC "-//W3C//DTD SVG 1.1//EN" "http://www.w3.org/Graphics/SVG/1.1/DTD/svg11.dtd"><svg t="1781783222128" class="icon" viewBox="0 0 1024 1024" version="1.1" xmlns="http://www.w3.org/2000/svg" p-id="39452" xmlns:xlink="http://www.w3.org/1999/xlink" width="32" height="32"><path d="M511.340544 986.185728c-1.88416 0-3.731456-0.21504-5.543936-0.651264-51.41504-12.976128-234.653696-136.50944-339.146752-399.872-48.187392-121.585664-60.489728-257.55648-62.373888-350.21824-0.503808-25.546752 14.67392-49.850368 37.685248-60.526592 109.78304-50.927616 311.156736-137.080832 369.696768-137.302016 58.710016 0.169984 259.19488 86.071296 368.39424 136.849408 20.41856 9.445376 37.900288 37.599232 37.443584 60.237824-1.91488 93.298688-14.352384 229.943296-62.521344 351.008768-98.308096 247.158784-279.072768 384.239616-337.885184 399.7696-1.86368 0.487424-3.833856 0.704512-5.748736 0.704512z" p-id="39453"></path></svg>