<?xml version="1.0" standalone="no"?><!DOCTYPE svg PUBLIC "-//W3C//DTD SVG 1.1//EN" "http://www.w3.org/Graphics/SVG/1.1/DTD/svg11.dtd"><svg t="1781786326047" class="icon" viewBox="0 0 1024 1024" version="1.1" xmlns="http://www.w3.org/2000/svg" p-id="21524" xmlns:xlink="http://www.w3.org/1999/xlink" width="32" height="32"><path d="M686.933333 76.8C633.6 55.466667 573.866667 42.666667 512 42.666667 251.733333 42.666667 42.666667 251.733333 42.666667 512s209.066667 469.333333 469.333333 469.333333 469.333333-209.066667 469.333333-469.333333c0-61.866667-12.8-121.6-34.133333-174.933333l-119.466667 108.8-14.933333 17.066666c2.133333 17.066667 4.266667 29.866667 4.266667 49.066667 0 168.533333-136.533333 307.2-302.933334 307.2S209.066667 682.666667 209.066667 512c0-168.533333 136.533333-307.2 307.2-307.2 17.066667 0 32 0 42.666666 2.133333l128-130.133333z m-49.066666 268.8l-66.133334 66.133333-34.133333 32c-6.4-2.133333-17.066667-4.266667-25.6-4.266666-40.533333 0-72.533333 32-72.533333 72.533333s32 72.533333 72.533333 72.533333 68.266667-32 68.266667-72.533333c0-10.666667-2.133333-17.066667-4.266667-25.6l76.8-76.8 21.333333-21.333333 138.666667 19.2 166.4-166.4-172.8-25.6L725.333333 298.666667l83.2-83.2L780.8 42.666667l-166.4 166.4 23.466667 136.533333zM512 396.8c6.4 0 14.933333 0 21.333333 2.133333l61.866667-61.866666-12.8-74.666667c-21.333333-4.266667-46.933333-10.666667-72.533333-10.666667-142.933333 0-260.266667 115.2-260.266667 260.266667S369.066667 772.266667 512 772.266667 772.266667 654.933333 772.266667 512c0-21.333333-2.133333-44.8-10.666667-66.133333l-76.8-14.933334-59.733333 59.733334c2.133333 6.4 2.133333 14.933333 2.133333 21.333333 0 64-51.2 115.2-115.2 115.2S396.8 576 396.8 512c0-64 51.2-115.2 115.2-115.2z" fill="#040000" p-id="21525"></path></svg>